<svg aria-hidden="true" style="position: absolute; width: 0; height: 0; overflow: hidden;" version="1.1" xmlns="http://www.w3.org/2000/svg" xmlns:xlink="http://www.w3.org/1999/xlink">
<defs>
<symbol id="icon-icon-teleg" viewBox="0 0 32 32">
<path fill="#fff" style="fill: var(--color1, #fff)" d="M32 0l-32 18 10.227 3.788 15.773-14.788-11.998 16.186 0.010 0.004-0.012-0.004v8.814l5.735-6.691 7.265 2.691 5-28z"></path>
</symbol>
<symbol id="icon-Vector-3" viewBox="0 0 32 32">
<path fill="#fff" style="fill: var(--color1, #fff); stroke: var(--color1, #fff)" stroke="#fff" stroke-linejoin="miter" stroke-linecap="butt" stroke-miterlimit="4" stroke-width="0.4923" d="M4.817 15.389l-0.169-0.162-2.544 2.41 8.962 8.55 18.829-17.962-2.527-2.411-16.302 15.536-6.249-5.962z"></path>
</symbol>
<symbol id="icon-Vector-" viewBox="0 0 32 32">
<path d="M27.638 4h-23.839c-1.639 0-2.965 1.35-2.965 3l-0.015 18c0 1.65 1.341 3 2.98 3h23.839c1.639 0 2.98-1.35 2.98-3v-18c0-1.65-1.341-3-2.98-3zM27.042 10.375l-10.534 6.63c-0.477 0.3-1.103 0.3-1.579 0l-10.534-6.63c-0.372-0.24-0.596-0.645-0.596-1.080 0-1.005 1.088-1.605 1.937-1.080l9.983 6.285 9.983-6.285c0.849-0.525 1.937 0.075 1.937 1.080 0 0.435-0.223 0.84-0.596 1.080z"></path>
</symbol>
<symbol id="icon-Vector-1" viewBox="0 0 32 32">
<path d="M27.021 20.852l-4.173-0.48c-1.002-0.116-1.988 0.232-2.695 0.943l-3.023 3.044c-4.65-2.382-8.462-6.203-10.828-10.901l3.040-3.060c0.707-0.711 1.052-1.704 0.937-2.713l-0.476-4.168c-0.197-1.671-1.594-2.928-3.27-2.928h-2.842c-1.857 0-3.401 1.555-3.286 3.424 0.871 14.126 12.093 25.407 26.108 26.284 1.857 0.116 3.401-1.439 3.401-3.308v-2.861c0.016-1.671-1.232-3.077-2.892-3.275z"></path>
</symbol>
<symbol id="icon-Vector" viewBox="0 0 32 32">
<path d="M16.885 16c4.053 0 7.335-3.305 7.335-7.385s-3.282-7.385-7.335-7.385c-4.053 0-7.335 3.305-7.335 7.385s3.283 7.385 7.335 7.385zM16.885 19.692c-4.896 0-14.67 2.474-14.67 7.385v1.846c0 1.015 0.825 1.846 1.834 1.846h25.673c1.009 0 1.834-0.831 1.834-1.846v-1.846c0-4.911-9.774-7.385-14.67-7.385z"></path>
</symbol>
</defs>
</svg>
